<?xml version="1.0" encoding="utf-8"?>
<!-- Generator: Adobe Illustrator 16.0.4, SVG Export Plug-In . SVG Version: 6.00 Build 0)  -->
<!DOCTYPE svg PUBLIC "-//W3C//DTD SVG 1.1//EN" "http://www.w3.org/Graphics/SVG/1.1/DTD/svg11.dtd">
<svg version="1.1" id="Layer_1" xmlns="http://www.w3.org/2000/svg" xmlns:xlink="http://www.w3.org/1999/xlink" x="0px" y="0px"
	 width="269.237px" height="202.926px" viewBox="-45.705 0 269.237 202.926" enable-background="new -45.705 0 269.237 202.926"
	 xml:space="preserve">
<path fill="#FE2B75" d="M223.359,88.58c-0.241-0.397-0.684-0.624-1.151-0.583l-42.711,3.73l7.394-66.126
	c0.044-0.398-0.11-0.794-0.411-1.056c-0.303-0.265-0.717-0.365-1.102-0.266L112.87,42.48L76.978,0.435H76.97
	c-0.095-0.112-0.204-0.212-0.34-0.286c-0.443-0.243-0.992-0.183-1.379,0.147L39.583,30.891l-47.636-7.793
	c-0.51-0.078-1.02,0.164-1.27,0.62c-0.135,0.245-0.172,0.52-0.127,0.783l-0.008,0.001l6.935,42.5l-42.754,36.602
	c-0.507,0.433-0.571,1.193-0.147,1.706l38.358,46.448l9.944,43.547c0.128,0.611,0.611,0.979,1.223,0.979
	c0.027,0,0.056-0.002,0.085-0.002l63.089-4.317c0.293-0.021,0.559-0.152,0.763-0.351l0.007,0.007l38.547-37.533l43.472,48.432
	c0.235,0.245,0.611,0.366,0.855,0.406c0.193,0,0.388-0.047,0.569-0.141c0.194-0.102,0.337-0.26,0.449-0.437h0.016l71.368-112.547
	c0.274-0.264,0.276-0.874,0.032-1.222H223.359z M-41.719,106.016l45.591,3.255l-10.384,39.379L-41.719,106.016z M112.004,46.701
	l12.114,49.862l-58.765,5.133L112.004,46.701z M64.26,99.204l8.038-60.484l37.995,6.216L64.26,99.204z M61.636,100.377
	L18.937,52.781l50.86-13.81L61.636,100.377z M65.043,104.178l58.824-5.139l-17.72,50.956L65.043,104.178z M101.947,148.979
	L10.32,108.956l51.675-4.513L101.947,148.979z M115.044,48.862l37.672,45.203l-26.129,2.283L115.044,48.862z M116.079,46.281
	l53.049,14.392L155.11,93.117L116.079,46.281z M170.109,58.405l-53.175-14.423l66.632-16.725L170.109,58.405z M72.621,36.294
	L76.899,4.11l32.625,38.222L72.621,36.294z M21.616,49.52l18.696-16.033l25.18,4.118L21.616,49.52z M59.954,102.166l-53.498,4.672
	L0.112,67.961l16.479-14.133L59.954,102.166z M5.969,110.916l56.889,76.146l-67.366-36.413L5.969,110.94V110.916z M67.306,188.93
	L9.179,111.127l95.285,41.62L67.306,188.93z M125.436,101.979l8.676,35.703l-25.366,12.284L125.436,101.979z M127.168,98.751
	l27.454-2.396l18.638,22.365l-36.898,17.869L127.168,98.751z M157.591,96.095l19.143-1.672l-2.43,21.77L157.591,96.095z
	 M173.25,121.441l-22.195,75.6l-14.1-58.02L173.25,121.441z M176.245,119.924l42.105-26.74l-63.783,100.529L176.245,119.924z
	 M217.427,90.87L176.7,116.737l2.521-22.53L217.427,90.87z M157.545,93.645l26.004-60.178l-6.539,58.459L157.545,93.645z
	 M74.414,4.241l-4.208,31.657l-27.467-4.493L74.414,4.241z M37.156,32.972L16.815,50.414L-5.024,26.072l42.179,6.842V32.972z
	 M-6.371,28.229l21.329,23.778L-0.349,65.135L-6.371,28.229z M3.976,106.824l-45.402-3.242l39.365-33.757L3.976,106.824z
	 M-4.143,153.625l67.008,36.221l-57.833,3.957L-4.143,153.625z M108.615,152.749l26.087-12.636l13.904,57.215L108.615,152.749z"/>
</svg>
